Coordinates
version=1
nRows=15
nColumns=34
inDegrees=yes

Units are S.I. units (second, meters, Newtons, ...)
If the header above contains a line with 'inDegrees', this indicates whether rotational values are in degrees (yes) or radians (no).

endheader
time	pelvis_tilt	pelvis_list	pelvis_rotation	pelvis_tx	pelvis_ty	pelvis_tz	hip_flexion_r	hip_adduction_r	hip_rotation_r	knee_angle_r	ankle_angle_r	subtalar_angle_r	mtp_angle_r	hip_flexion_l	hip_adduction_l	hip_rotation_l	knee_angle_l	ankle_angle_l	subtalar_angle_l	mtp_angle_l	lumbar_extension	lumbar_bending	lumbar_rotation	arm_flex_r	arm_add_r	arm_rot_r	elbow_flex_r	pro_sup_r	arm_flex_l	arm_add_l	arm_rot_l	elbow_flex_l	pro_sup_l
      4.53333330	      9.85171843	      0.34516093	      0.35122310	      0.12851442	      1.00096003	      0.07142441	    -20.40515435	     -1.95569073	     -3.25813538	      0.39091776	      9.53675793	     -6.64770223	      0.00000000	    -19.42265758	     -2.64432800	     -9.98535697	      2.20219169	      9.63576848	     -0.36972016	      0.00000000	     13.84862983	     -0.84519566	     -2.78628171	     -8.40524298	     -4.84861703	      6.90853959	     10.99492068	     88.71343801	    -10.89701806	     -6.64826179	     21.02250659	     12.61626111	     79.38735965
      4.55000000	     10.23037802	      0.43711091	      0.48358384	      0.13239031	      1.00351768	      0.07278678	    -20.99296628	     -1.98340209	     -3.24001808	      0.48782413	      9.64175123	     -6.64170760	      0.00000000	    -19.87155468	     -2.64383552	     -9.99042653	      2.47473117	      9.69998235	     -0.40228263	      0.00000000	     14.52724929	     -1.00502771	     -2.73545860	     -9.21374673	     -4.87938951	      6.88628988	     10.72392669	     88.67111576	    -11.66028164	     -6.73035765	     20.89131479	     12.37300353	     79.27942274
      4.56666670	     10.12044513	      0.57046745	      0.67763997	      0.13224172	      1.00343843	      0.07199061	    -21.04769879	     -2.05709811	     -3.60207766	      0.50265578	      9.93979543	     -5.97210685	      0.00000000	    -19.77041884	     -2.60025323	     -9.79398919	      2.70084307	      9.77280050	     -0.30277416	      0.00000000	     16.06656052	     -1.30039029	     -2.92972125	     -9.91798246	     -4.80160811	      6.46038914	     10.02156042	     87.20029025	    -12.74269879	     -6.25784117	     16.21885505	     11.89150185	     75.08232244
      4.58333330	     10.46546160	      0.69728246	      0.81308808	      0.13488289	      1.00456725	      0.07245795	    -21.63267473	     -2.13277878	     -3.58124883	      0.40224690	      9.96320966	     -5.96337349	      0.00000000	    -20.14398932	     -2.56342690	     -9.83921789	      2.95453362	      9.84986976	     -0.35903165	      0.00000000	     16.70853899	     -1.45902397	     -2.82247730	    -10.69393543	     -4.84907485	      6.50439597	      9.73536068	     87.19506127	    -13.44669338	     -6.31436054	     16.22691465	     11.66950465	     75.02608131
      4.60000000	     10.69166883	      0.84464404	      0.95645438	      0.13585722	      1.00630537	      0.07212836	    -22.09556611	     -2.20768589	     -3.55296407	      0.27609400	      9.94210787	     -5.81119478	      0.00000000	    -20.44484583	     -2.45387076	     -9.61573026	      3.01159691	      9.93245484	     -0.18650204	      0.00000000	     17.65298574	     -1.68171944	     -2.61729644	    -11.49734786	     -4.82862403	      6.64390986	      9.33958539	     87.20433259	    -14.04581250	     -6.41154796	     16.20689563	     11.39993270	     74.88052382
      4.61666670	     10.98426184	      0.90786548	      1.07305658	      0.13656309	      1.00841576	      0.07166623	    -22.46208492	     -2.22481691	     -3.61020363	      0.36511581	     10.00836255	     -5.77810507	      0.00000000	    -20.72533657	     -2.44350641	     -9.56911492	      3.21547832	      9.99266668	     -0.13424851	      0.00000000	     18.21487450	     -1.79216672	     -2.47672292	    -12.22946728	     -4.85884605	      6.76317165	      8.98758606	     87.22584829	    -14.67324278	     -6.47746508	     16.20640288	     11.12633309	     74.78711909
      4.63333330	     11.09343272	      1.03797349	      1.23780068	      0.13907225	      1.01026774	      0.07192536	    -22.74767811	     -2.27704735	     -3.70485419	      0.29587618	      9.82295697	     -5.40734764	      0.00000000	    -20.91442920	     -2.37191034	     -9.40203026	      3.21795558	      9.96482530	      0.26154968	      0.00000000	     19.25607275	     -2.11255561	     -2.19030022	    -13.10244541	     -4.79244940	      7.29925372	      8.29253107	     87.34773639	    -15.15470760	     -6.60548892	     16.25072636	     10.63663769	     74.45776124
      4.65000000	     11.22339579	      1.09125685	      1.31868463	      0.13841207	      1.00902536	      0.07157249	    -22.76066867	     -2.30942010	     -3.92888398	      0.73765882	     10.19044467	     -5.19886513	      0.00000000	    -20.98133953	     -2.36155608	     -9.57896613	      3.48835555	     10.25230879	      0.54881282	      0.00000000	     20.07066095	     -2.29292228	     -2.57353683	    -13.27117873	     -5.23934463	     18.79760330	      6.98865085	     80.56707882	    -15.81199366	     -7.01156050	     24.99330012	     10.56747067	     54.64319139
      4.66666670	     11.57752357	      1.13127838	      1.39098566	      0.14168794	      1.00894389	      0.07104529	    -23.18212084	     -2.33148113	     -3.96722753	      0.87953565	     10.20750359	     -5.15767372	      0.00000000	    -21.34310440	     -2.35437182	     -9.64222651	      3.67228739	     10.35682591	      0.49347158	      0.00000000	     20.49693925	     -2.35467620	     -2.49630040	    -13.98972771	     -5.29550069	     18.88501000	      6.77130228	     80.59799557	    -16.39011960	     -7.12584951	     25.06089316	     10.41667294	     54.63848203
      4.68333330	     11.70336954	      1.20846482	      1.48613351	      0.14476815	      1.00855542	      0.07126863	    -23.38681580	     -2.40840643	     -4.44796173	      1.07192222	     10.74088166	     -3.99770754	      0.00000000	    -21.51736528	     -2.33204775	     -9.86131953	      3.87045504	     10.68806210	      1.14473434	      0.00000000	     21.47976550	     -2.42367459	     -2.32028283	    -14.87041884	     -5.61305898	     23.06223477	      6.69533281	     81.81404828	    -17.18471981	     -7.50682024	     27.66575143	     10.37537048	     54.02659240
      4.70000000	     12.15084718	      1.25168402	      1.57997912	      0.14678920	      1.00882375	      0.07093222	    -23.79672173	     -2.42776002	     -4.46756805	      1.47647965	     10.80329094	     -4.08143609	      0.00000000	    -21.88139529	     -2.36901324	     -9.81603200	      4.27763993	     10.75725809	      1.09320840	      0.00000000	     21.80261192	     -2.39738819	     -2.15341293	    -15.53851149	     -5.68159040	     23.12396732	      6.49020324	     81.82490334	    -17.91575388	     -7.57130352	     27.69135812	     10.21264659	     53.99752658
      4.71666670	     12.55722010	      1.31091570	      1.70726423	      0.14955021	      1.00487569	      0.07094814	    -24.40391122	     -2.41779347	     -4.50083698	      1.56789896	     11.15996883	     -4.24009201	      0.00000000	    -22.37890027	     -2.38030941	     -9.80654753	      4.44887327	     11.19995623	      0.91172576	      0.00000000	     22.37344963	     -2.38757134	     -1.84774203	    -16.48557292	     -5.62428691	     23.34654259	      6.22432827	     81.87495761	    -18.82547429	     -7.71783141	     27.73944439	     10.08410755	     53.91193278
      4.73333330	     12.34438695	      1.30588128	      1.72813815	      0.15184035	      1.00465719	      0.07152098	    -24.09832943	     -2.42436442	     -4.63083332	      2.06572192	     11.90420962	     -3.50206840	      0.00000000	    -22.12867738	     -2.44482142	     -9.93483733	      4.84429674	     11.58822291	      1.21393280	      0.00000000	     23.86826675	     -2.28269995	     -1.45509920	    -17.55721608	     -6.02137359	     29.66366995	      6.33338811	     82.84690766	    -20.15763467	     -8.18089504	     29.49770692	     11.07941554	     51.43476714
      4.75000000	     12.78670264	      1.37877927	      1.86972308	      0.15156315	      1.00609900	      0.07154414	    -24.58671791	     -2.42803837	     -4.68839979	      2.31469608	     11.96120768	     -3.61505936	      0.00000000	    -22.52420199	     -2.48958190	     -9.92464051	      5.16105743	     11.76396191	      1.12438882	      0.00000000	     24.24248054	     -2.38529763	     -1.48299258	    -18.21801628	     -6.03630859	     29.76111183	      6.12380033	     82.82689199	    -20.52603679	     -8.39638244	     29.51916922	     10.93175280	     51.36470259
      4.76666670	     13.59410428	      1.57503549	      2.24235538	      0.15253211	      1.00510760	      0.07063407	    -25.68306942	     -2.40471646	     -5.12759243	      2.22791286	     12.23085095	     -3.44108716	      0.00000000	    -23.26488357	     -2.50933219	     -9.53810700	      5.52104456	     12.16471274	      1.17706266	      0.00000000	     24.06352660	     -2.74272723	     -2.04520418	    -18.27527256	     -6.41252907	     40.76744027	      5.77864684	     79.03362453	    -20.68506915	     -9.06211900	     34.15873274	     11.85856426	     44.13725830
